<svg viewBox="0 0 100 100" xmlns="http://www.w3.org/2000/svg">
  <g
    stroke="#22c55e"
    stroke-width="1.5"
    fill="none"
    stroke-linecap="round"
    stroke-linejoin="round"
  >
    <!-- Gear Teeth -->
    <path d="
      M50 10
      L58 14 L66 10 L72 18 L80 20 L82 30
      L90 36 L86 44 L90 50 L86 56 L90 64
      L82 70 L80 80 L72 82 L66 90 L58 86
      L50 90 L42 86 L34 90 L28 82 L20 80
      L18 70 L10 64 L14 56 L10 50 L14 44
      L10 36 L18 30 L20 20 L28 18 L34 10
      L42 14 Z
    "/>

    <!-- Inner Circle -->
    <circle cx="50" cy="50" r="18" />
  </g>
</svg>